<svg xmlns="http://www.w3.org/2000/svg" xmlns:xlink="http://www.w3.org/1999/xlink" width="89.176" height="100" viewBox="0 0 89.176 100">
  <defs>
    <clipPath id="clip-path">
      <rect id="Rectangle_16517" data-name="Rectangle 16517" width="89.176" height="100" fill="#706a9a"/>
    </clipPath>
  </defs>
  <g id="Group_590" data-name="Group 590" clip-path="url(#clip-path)">
    <path id="Path_26577" data-name="Path 26577" d="M29.343,68.8c-1.079-.364-1.985-.685-2.9-.975a1.948,1.948,0,0,1-1.494-2.079c.018-1.934,0-3.867,0-5.94-.4.125-.707.2-1,.315-3.557,1.419-7.108,2.855-10.669,4.263a5.575,5.575,0,0,0-3.649,4.3Q6.567,83.421,3.458,98.154c-.281,1.336-1.076,2.015-2.087,1.811C.274,99.744-.2,98.818.081,97.441Q3.146,82.7,6.223,67.96a8.908,8.908,0,0,1,5.811-6.817c4.292-1.682,8.566-3.413,12.835-5.156a5.294,5.294,0,0,0,1.467-.965c1.077-.959,2.106-1.971,3.379-3.174a17.084,17.084,0,0,1-10.074-5.3c2.369-2.921,2.74-6.461,3.039-9.963.3-3.483.331-6.989.455-10.486a50.331,50.331,0,0,1,2.285-14.5,22.966,22.966,0,0,1,1.966-4.235A7.659,7.659,0,0,1,35.791,3.43a2.79,2.79,0,0,0,2.593-.749,10.352,10.352,0,0,1,6.4-2.6c5.925-.413,11.363.76,15.6,5.3a19.248,19.248,0,0,1,4.906,10.935,110.206,110.206,0,0,1,.693,11.567c.095,4.583.13,9.16,1.158,13.655a9.634,9.634,0,0,0,2.124,4.726.982.982,0,0,1-.019.956c-.853.958-1.631,2.172-2.723,2.686a40.658,40.658,0,0,1-5.8,1.83,10.307,10.307,0,0,1-1.1.165c1.759,1.443,2.772,3.3,4.73,4.1,4.1,1.675,8.188,3.362,12.324,4.932a9.571,9.571,0,0,1,6.4,7.622c1.943,9.658,4.009,19.292,6.023,28.936.273,1.3-.189,2.207-1.242,2.461-1.011.244-1.863-.437-2.137-1.737Q82.6,83.37,79.494,68.523a5.155,5.155,0,0,0-3.149-3.932C72.5,63,68.621,61.48,64.755,59.935a3.739,3.739,0,0,0-.538-.111c0,1.919,0,3.772,0,5.624,0,1.537-.3,1.949-1.741,2.454-.771.271-1.543.54-2.313.815-.065.023-.113.092-.242.2.623.948,1.253,1.9,1.881,2.863.93,1.421.844,2.077-.459,3.147C57.371,78.19,53.408,81.461,49.4,84.68c-.693.557-.956,1.011-.5,1.838a9.966,9.966,0,0,1,1.026,5.4c-.079,1.971-.008,3.947-.021,5.921-.008,1.327-.7,2.153-1.749,2.154s-1.741-.825-1.748-2.152c-.013-2.235-.036-4.47.015-6.7a1.9,1.9,0,0,0-.818-1.683q-8.841-7.188-17.643-14.423c-1.485-1.217-1.566-1.792-.51-3.387.593-.9,1.188-1.792,1.888-2.847M39.229,9c-.133.469-.223.734-.282,1a17.886,17.886,0,0,1-4.484,8.713c-1.418,1.5-2.588,3.238-3.888,4.853a10.86,10.86,0,0,1-1.495,1.643,4.142,4.142,0,0,0-1.507,3.11,5.551,5.551,0,0,0,1.617,4.713c2.2,1.917,3.28,4.432,4.612,6.892a11.967,11.967,0,0,0,14.424,6c4.614-1.421,7.1-4.907,8.667-9.237a3.914,3.914,0,0,1,1.1-1.562c1.615-1.384,3.048-2.888,3.469-5.052.392-2.014.152-3.854-1.771-5.122a11.413,11.413,0,0,1-1.353-1.317,27.9,27.9,0,0,0-3.61-3.28C52.2,18.726,49.51,17.352,46.9,15.847,43.936,14.135,40.92,12.472,39.229,9M38.837,48.87c-.436,2.685-.873,5.244-1.252,7.812a3.358,3.358,0,0,0,.126,1.618c.962,2.537,1.975,5.056,3.02,7.56a1.653,1.653,0,0,0,.874.871,10.168,10.168,0,0,0,5.725.154,1.736,1.736,0,0,0,.98-.893c.823-1.871,1.474-3.822,2.361-5.66a8.038,8.038,0,0,0,.659-5.586c-.447-1.9-.637-3.867-.954-5.9a16.129,16.129,0,0,1-11.539.024M58.352,72.879c-.892-1.341-1.732-2.564-2.53-3.813-.868-1.358-.49-2.415,1.041-2.955,1.015-.358,2.034-.71,3.067-1.009a.958.958,0,0,0,.8-1.115c-.042-1.822.014-3.646-.038-5.468a1.905,1.905,0,0,0-.492-1.153c-1.2-1.267-2.44-2.506-3.714-3.7a21.294,21.294,0,0,0-2.068-1.491c.153,1,.216,1.627.347,2.236a9.693,9.693,0,0,1-.39,6.1c-2.589,6.082-4.99,12.244-7.551,18.339a3.172,3.172,0,0,0,.4,3.151l11.135-9.117M43.579,83.314l.263-.059c-.146-.4-.281-.8-.438-1.2-2.913-7.319-5.812-14.644-8.757-21.951a7.543,7.543,0,0,1-.424-4.577c.218-1,.34-2.013.545-3.263a7.064,7.064,0,0,0-1.25.715q-2.435,2.3-4.809,4.655a1.261,1.261,0,0,0-.24.813c-.021,1.861.006,3.723-.021,5.583a.882.882,0,0,0,.734,1.037c.965.267,1.9.628,2.853.956,1.939.671,2.253,1.63,1.1,3.367-.755,1.143-1.515,2.283-2.314,3.486L43.579,83.314" transform="translate(0 0)" fill="#706a9a"/>
    <path id="Path_26578" data-name="Path 26578" d="M29.908,178.1c-.219-3.779-.359-7.565-.7-11.333a23.146,23.146,0,0,0-1.084-4.195c-.367-1.277-.021-2.192,1.022-2.552.974-.335,1.842.19,2.268,1.4a30.265,30.265,0,0,1,1.774,9.827c.039,4.983.018,9.968.013,14.952,0,1.406-.691,2.252-1.778,2.233s-1.718-.856-1.722-2.288c-.006-2.678,0-5.356,0-8.034l.2-.012" transform="translate(-15.477 -88.436)" fill="#706a9a"/>
    <path id="Path_26579" data-name="Path 26579" d="M56.709,200.78c0,1.157.011,2.189,0,3.222-.018,1.315-.718,2.144-1.772,2.129s-1.712-.836-1.726-2.173c-.011-1,0-2,0-3.177-1.09,0-2.115.008-3.14,0-1.4-.013-2.246-.71-2.21-1.8.034-1.051.848-1.687,2.2-1.7,1-.01,2,0,3.152,0,0-1.111-.008-2.138,0-3.165.014-1.346.661-2.162,1.713-2.186,1.088-.026,1.774.822,1.787,2.226.009,1,0,1.993,0,3.125,1.132,0,2.162-.009,3.191,0,1.328.015,2.152.689,2.158,1.741s-.822,1.74-2.143,1.757c-1,.013-2.007,0-3.207,0" transform="translate(-26.464 -106.137)" fill="#706a9a"/>
    <path id="Path_26580" data-name="Path 26580" d="M95.332,209.633a1.738,1.738,0,1,1-1.713-1.708,1.8,1.8,0,0,1,1.713,1.708" transform="translate(-50.798 -114.985)" fill="#706a9a"/>
  </g>
</svg>
