<svg id="Group_618" data-name="Group 618" xmlns="http://www.w3.org/2000/svg" xmlns:xlink="http://www.w3.org/1999/xlink" width="145.565" height="100" viewBox="0 0 145.565 100">
  <defs>
    <clipPath id="clip-path">
      <rect id="Rectangle_16519" data-name="Rectangle 16519" width="145.565" height="100" fill="#706a9a"/>
    </clipPath>
  </defs>
  <g id="Group_597" data-name="Group 597" transform="translate(0)" clip-path="url(#clip-path)">
    <path id="Path_26584" data-name="Path 26584" d="M130.319,52.329H117.787c-.569,0-1.138.019-1.705-.01a2.031,2.031,0,0,1-2.212-2.07,2.07,2.07,0,0,1,2.147-2.167c1.227-.078,2.462-.03,3.693-.03q4.975,0,9.948,0c3.551,0,4.694.985,5.159,4.572h1.5c4.737,0,9.474-.01,14.211,0,4.2.011,6.295,2.1,6.31,6.283.023,6.111.061,12.222.031,18.332a2.406,2.406,0,0,0,1.174,2.334c1.9,1.242,3.721,2.608,5.554,3.951a5.25,5.25,0,0,1,2.178,5.87c-1.383,5.454-2.775,10.911-4.374,16.3a7.969,7.969,0,0,1-7.279,5.862,1.976,1.976,0,0,0-1.787,1.227,14.823,14.823,0,0,1-8.146,7.126c-5.89,2.225-13.024-.072-13.574-8.282h-1.51q-22.667,0-45.334-.026a2.063,2.063,0,0,0-2.157,1.3c-2.778,5.256-8.814,8.531-13.927,7.683-4.467-.74-7.1-3.565-7.558-8.1-.023-.228-.059-.455-.111-.853H53.91c-.711,0-1.421.006-2.132,0-3.5-.032-5.129-2.135-4.236-5.5q1.693-6.376,3.413-12.745c.233-.868.439-1.744.714-2.6a2.124,2.124,0,1,1,4.07,1.181c-1.2,4.575-2.435,9.139-3.652,13.709-.132.5-.241,1-.4,1.67,3.018,0,5.933.034,8.846-.047.332-.009.721-.621.957-1.028,2.862-4.942,6.953-7.97,12.823-8,4.952-.028,8.376,3.2,8.893,8.141.028.272.064.544.1.877h32.285c4.883-18.223,9.772-36.467,14.727-54.962M124.9,89.13h1.726q10.868,0,21.737,0a10.065,10.065,0,0,1,1.418.044,2.085,2.085,0,0,1,.416,4.009,5.85,5.85,0,0,1-1.816.214c-7.767.013-15.534.03-23.3-.016a1.467,1.467,0,0,0-1.723,1.326c-.953,3.806-2,7.589-3,11.383-.1.377-.128.772-.206,1.267,3.544,0,6.9-.029,10.261.02a1.657,1.657,0,0,0,1.737-1.048,14.659,14.659,0,0,1,10.36-7.894c5.28-1.112,10,1.683,11.111,6.531.164.721.214,1.467.317,2.2a3.56,3.56,0,0,0,3.274-2.424c1.106-3.7,2.071-7.432,3.12-11.255-.781-.053-1.394-.047-1.989-.146a2.043,2.043,0,0,1-1.855-2.28,1.97,1.97,0,0,1,2.064-1.921,7.769,7.769,0,0,0,1.274-.03,18.288,18.288,0,0,0,1.808-.6,6.325,6.325,0,0,0-1.124-1.906c-1.737-1.384-3.56-2.67-5.421-3.887a4.359,4.359,0,0,0-2.2-.7c-4.593-.063-9.188,0-13.781-.044-4.311-.046-6.67-3.156-5.622-7.346q.843-3.37,1.784-6.717a7.47,7.47,0,0,1,4.319-5.162,16.182,16.182,0,0,1,5.075-.962c2.58-.154,5.177-.04,7.9-.04,0-1.019,0-1.86,0-2.7-.012-1.872-.26-2.137-2.125-2.141-5.21-.01-10.419.022-15.628-.026a1.383,1.383,0,0,0-1.633,1.254c-2.022,7.73-4.115,15.442-6.184,23.159-.682,2.543-1.36,5.086-2.095,7.836m27.637-23.006c-3.378,0-6.687-.133-9.977.054-1.76.1-2.788,1.483-3.258,3.156-.575,2.047-1.116,4.1-1.644,6.165-.424,1.653-.016,2.189,1.7,2.2,3.456.02,6.912.007,10.368.007h2.815Zm-78.5,36.4a10.544,10.544,0,0,0-9.547,7.965c-.684,3.718,1.661,6.323,5.341,5.936a10.716,10.716,0,0,0,8.961-7.992c.752-3.439-1.247-5.923-4.756-5.91M149.56,107.3a4.35,4.35,0,0,0-4.476-4.77c-4.684-.175-9.579,4.044-10.074,8.679a4.515,4.515,0,0,0,4.478,5.235c4.683.314,9.942-4.461,10.071-9.145" transform="translate(-20.408 -20.726)" fill="#706a9a"/>
    <path id="Path_26585" data-name="Path 26585" d="M104.134,34.08A34.052,34.052,0,1,1,70.183,0a34.159,34.159,0,0,1,33.95,34.081m-4.28.031a29.775,29.775,0,1,0-29.8,29.716,29.861,29.861,0,0,0,29.8-29.716" transform="translate(-15.545 0)" fill="#706a9a"/>
    <path id="Path_26586" data-name="Path 26586" d="M13.57,108.267c3.642,0,7.284.009,10.926,0,1.28,0,2.246.425,2.5,1.788.254,1.388-.738,2.443-2.386,2.478-2.317.05-4.635.016-6.953.016q-7.166,0-14.332,0a9.017,9.017,0,0,1-1.415-.059,2.075,2.075,0,0,1-1.892-2.253A1.979,1.979,0,0,1,2.076,108.3c2.743-.044,5.487-.025,8.23-.03q1.631,0,3.263,0" transform="translate(0 -46.71)" fill="#706a9a"/>
    <path id="Path_26587" data-name="Path 26587" d="M21.041,124.31c2.125,0,4.251-.016,6.376.005,1.6.016,2.486.768,2.508,2.064a2.136,2.136,0,0,1-2.416,2.192q-6.517.054-13.036,0a2.194,2.194,0,0,1-2.456-2.172c.013-1.258.958-2.069,2.506-2.084,2.173-.022,4.345-.006,6.518-.006" transform="translate(-5.185 -53.631)" fill="#706a9a"/>
    <path id="Path_26588" data-name="Path 26588" d="M28.458,144.586a23.057,23.057,0,0,1-2.412-.016,2.146,2.146,0,0,1-2.01-2.179,2.1,2.1,0,0,1,2.126-2.035c1.513-.049,3.031-.048,4.544,0a2.035,2.035,0,0,1,2.128,2.012,2.127,2.127,0,0,1-1.963,2.213,1.891,1.891,0,0,1-.283.024q-1.065,0-2.13,0v-.019" transform="translate(-10.37 -60.541)" fill="#706a9a"/>
    <path id="Path_26589" data-name="Path 26589" d="M90.686,154.541a2.213,2.213,0,0,1-2.259,2.089,2.131,2.131,0,0,1-1.992-2.178,2.056,2.056,0,0,1,2.221-2.055,2.137,2.137,0,0,1,2.03,2.144" transform="translate(-37.292 -65.75)" fill="#706a9a"/>
    <path id="Path_26590" data-name="Path 26590" d="M212.782,152.395a2.056,2.056,0,0,1,2.071,2.066,2.128,2.128,0,0,1-2.137,2.175,2.231,2.231,0,0,1-2.11-2.1,2.126,2.126,0,0,1,2.176-2.137" transform="translate(-90.866 -65.751)" fill="#706a9a"/>
    <path id="Path_26591" data-name="Path 26591" d="M87.242,52.832a2.245,2.245,0,0,1-.843-.082c-1.876-1.022-2.9.23-4,1.414-.8.869-1.645,1.7-2.514,2.508a2.149,2.149,0,0,1-3.161.057,2.051,2.051,0,0,1,.14-3.041q1.811-1.9,3.717-3.717a1.428,1.428,0,0,0,.478-1.718,6.642,6.642,0,0,1,8.4-8.4,1.446,1.446,0,0,0,1.718-.471q5.147-5.2,10.341-10.354c1.261-1.253,2.663-1.245,3.529-.039.683.949.488,2.048-.609,3.151q-5.012,5.035-10.054,10.039a1.823,1.823,0,0,0-.624,2.167,6.588,6.588,0,0,1-6.514,8.49m2.509-6.651a2.387,2.387,0,0,0-2.431-2.424,2.452,2.452,0,0,0-2.353,2.39,2.392,2.392,0,0,0,2.32,2.394,2.319,2.319,0,0,0,2.464-2.36" transform="translate(-32.841 -12.117)" fill="#706a9a"/>
    <path id="Path_26592" data-name="Path 26592" d="M96.38,19.348c0,.331.017.663,0,.993a2.06,2.06,0,0,1-2.063,2.224,2.086,2.086,0,0,1-2.18-2.128,13.294,13.294,0,0,1,.005-2.267,2.174,2.174,0,0,1,2.22-2.117,2.149,2.149,0,0,1,2.012,2.16c.027.376,0,.756,0,1.134Z" transform="translate(-39.732 -6.925)" fill="#706a9a"/>
    <path id="Path_26593" data-name="Path 26593" d="M55.278,60.381c-2.15,0-3.2-.708-3.2-2.135s1.082-2.141,3.213-2.144c2.328,0,3.306.637,3.3,2.159s-.949,2.125-3.32,2.12" transform="translate(-22.47 -24.205)" fill="#706a9a"/>
    <path id="Path_26594" data-name="Path 26594" d="M131.467,60.334a11.437,11.437,0,0,1-1.272-.007,2.089,2.089,0,0,1-.11-4.141,11.475,11.475,0,0,1,2.821-.026,1.97,1.97,0,0,1,1.882,2.1,2.029,2.029,0,0,1-2.047,2.085c-.421.039-.849.006-1.274.006v-.018" transform="translate(-55.365 -24.198)" fill="#706a9a"/>
    <path id="Path_26595" data-name="Path 26595" d="M96.474,95.625c-.025.471.123,1.07-.111,1.387a4.42,4.42,0,0,1-1.8,1.671A1.641,1.641,0,0,1,92.4,97.366a11.454,11.454,0,0,1-.027-3.631A1.79,1.79,0,0,1,94.508,92.3,1.9,1.9,0,0,1,96.4,94.068a11.717,11.717,0,0,1,.012,1.555h.065" transform="translate(-39.799 -39.817)" fill="#706a9a"/>
  </g>
</svg>
