<svg xmlns="http://www.w3.org/2000/svg" xmlns:xlink="http://www.w3.org/1999/xlink" width="92.245" height="100" viewBox="0 0 92.245 100">
  <defs>
    <clipPath id="clip-path">
      <rect id="Rectangle_16518" data-name="Rectangle 16518" width="92.245" height="100" fill="#706a9a"/>
    </clipPath>
  </defs>
  <g id="Group_595" data-name="Group 595" clip-path="url(#clip-path)">
    <path id="Path_26581" data-name="Path 26581" d="M83.572,5.891a4.426,4.426,0,0,1,3.3,1.482.884.884,0,0,0,1.249.2c1.469-.688,2.972-1.31,4.492-1.878.592-.221.875-.43.882-1.135A4.311,4.311,0,0,1,98.114.008c2.118-.009,4.235-.013,6.352,0a4.3,4.3,0,0,1,4.51,4.467,1.1,1.1,0,0,0,.9,1.219c1.495.541,2.964,1.163,4.407,1.832a.975.975,0,0,0,1.335-.165,4.337,4.337,0,0,1,6.562.048q2.191,2.162,4.356,4.35a4.354,4.354,0,0,1,.075,6.57.994.994,0,0,0-.186,1.338c.687,1.505,1.3,3.045,1.89,4.593a.9.9,0,0,0,.964.711c3.012.088,4.672,1.815,4.68,4.808.005,2.019.011,4.039,0,6.059a4.349,4.349,0,0,1-4.553,4.64.991.991,0,0,0-1.111.77c-.584,1.583-1.252,3.137-1.94,4.678a.833.833,0,0,0,.165,1.1c2.107,2.238,2.061,4.615-.093,6.781-1.424,1.432-2.845,2.867-4.287,4.282a4.339,4.339,0,0,1-6.5.027.991.991,0,0,0-1.339-.2c-1.471.685-2.975,1.308-4.5,1.869-.572.21-.813.425-.822,1.07a4.36,4.36,0,0,1-4.69,4.606q-3.029.023-6.059,0a4.374,4.374,0,0,1-4.745-4.649.942.942,0,0,0-.761-1.019q-2.323-.876-4.586-1.9a.948.948,0,0,0-1.265.178,4.354,4.354,0,0,1-6.641-.075q-2.184-2.17-4.353-4.354a4.345,4.345,0,0,1-.045-6.5.991.991,0,0,0,.221-1.334c-.7-1.5-1.318-3.039-1.9-4.589a.942.942,0,0,0-1.034-.738A4.352,4.352,0,0,1,68.5,35.811c-.01-2.085-.014-4.169,0-6.254a4.319,4.319,0,0,1,4.508-4.577c.733-.009.966-.283,1.2-.927.539-1.5,1.179-2.956,1.838-4.4.227-.5.3-.807-.136-1.265-2.068-2.155-2.009-4.582.1-6.705,1.471-1.478,2.952-2.945,4.421-4.424a4.533,4.533,0,0,1,3.136-1.363m9.9,50.214c0-2.807-.027-5.249.017-7.689a1.28,1.28,0,0,0-.828-1.333,17.246,17.246,0,0,1-3.341-28.255,14.231,14.231,0,0,1,4.047-2.445,2.918,2.918,0,0,1,3.962,2.234,7.349,7.349,0,0,1,.216,1.835c-.005,3.321-.05,6.642-.065,9.963a6.19,6.19,0,0,0,.145,1.354A4.129,4.129,0,0,0,101.1,34.9a3.983,3.983,0,0,0,3.563-2.606,5.278,5.278,0,0,0,.315-1.713c.03-2.963.009-5.927.016-8.891a17.968,17.968,0,0,1,.07-2.721,3.061,3.061,0,0,1,4.171-2.583,7.713,7.713,0,0,1,1.846.857,17.174,17.174,0,0,1,.167,28.9c-1.884,1.227-2.476,2.41-2.281,4.463.164,1.725.034,3.478.034,5.533,1.87-.947,3.519-1.761,5.149-2.614a2.029,2.029,0,0,1,2.743.328c.473.447.937.906,1.381,1.381.382.408.724.483,1.151.051q2.162-2.189,4.355-4.349a.684.684,0,0,0-.011-1.151c-.521-.491-1.023-1-1.517-1.522a1.853,1.853,0,0,1-.319-2.413,26.863,26.863,0,0,0,3.207-7.715,1.928,1.928,0,0,1,1.991-1.545c.715-.029,1.433-.022,2.149,0,.537.013.77-.224.768-.757-.007-2.051-.012-4.1,0-6.155,0-.6-.27-.81-.834-.8-.684.018-1.369.026-2.051-.008a1.919,1.919,0,0,1-2.039-1.611,27.086,27.086,0,0,0-3.181-7.622,1.87,1.87,0,0,1,.282-2.42c.487-.525.995-1.032,1.515-1.525.4-.38.492-.714.053-1.145-1.487-1.461-2.938-2.958-4.45-4.392a.991.991,0,0,0-.952,0,20.9,20.9,0,0,0-1.545,1.489,1.921,1.921,0,0,1-2.653.306,26.451,26.451,0,0,0-7.444-3.1,1.95,1.95,0,0,1-1.663-2.1c-.023-.65-.027-1.3,0-1.954.025-.611-.192-.888-.844-.88-2.019.025-4.038.021-6.057,0-.594-.005-.821.242-.8.817.021.683.024,1.369,0,2.051a1.928,1.928,0,0,1-1.6,2.044,27.139,27.139,0,0,0-7.537,3.13,1.911,1.911,0,0,1-2.646-.346c-.449-.426-.9-.851-1.309-1.315-.469-.533-.849-.554-1.356-.016-1.027,1.09-2.109,2.128-3.169,3.187-1.62,1.62-1.62,1.62-.036,3.208.138.138.28.273.412.416a1.939,1.939,0,0,1,.32,2.657A26.431,26.431,0,0,0,77.363,27.2a1.951,1.951,0,0,1-2.1,1.671c-.65.03-1.3.034-1.954,0-.681-.032-.914.261-.9.928q.042,2.931,0,5.862c-.009.661.214.965.9.926.649-.036,1.3-.023,1.953,0A1.917,1.917,0,0,1,77.33,38.16,26.867,26.867,0,0,0,80.5,45.783a1.9,1.9,0,0,1-.3,2.5,15.217,15.217,0,0,1-1.315,1.309c-.69.568-.584,1.007.028,1.573,1.028.95,1.99,1.97,2.981,2.96,1.692,1.69,1.692,1.69,3.423-.02,1.194-1.179,1.793-1.219,3.281-.423,1.534.821,3.114,1.555,4.87,2.425m.084-35.65c-4.255,3.013-6.471,6.939-6.186,11.98A12.805,12.805,0,0,0,95.352,44a3.017,3.017,0,0,1,2.061,3.2c-.078,4.428-.011,8.859-.041,13.288-.005.812.268,1.087,1.073,1.068,1.823-.043,3.649-.053,5.471,0,.889.027,1.192-.247,1.183-1.162-.041-4.429.023-8.859-.041-13.288a2.849,2.849,0,0,1,1.97-3.049A13.354,13.354,0,0,0,110.8,21.953c-.56-.512-1.187-.951-1.893-1.512,0,2.775.015,5.342-.007,7.909a23.473,23.473,0,0,1-.166,3.8,7.7,7.7,0,0,1-5.451,6.309c-2.92.983-5.382-.043-7.459-2.1A7.92,7.92,0,0,1,93.554,30.5c0-3.285,0-6.57,0-10.048" transform="translate(-41.72 0)" fill="#706a9a"/>
    <path id="Path_26582" data-name="Path 26582" d="M18.231,173.654v15.775a2.362,2.362,0,0,0,.566.088c3.414-.333,6.636.565,9.874,1.458,7.209,1.989,14.443,3.884,21.649,5.88a10.075,10.075,0,0,0,8.592-1.246c1.608-1.048,3.169-2.167,4.749-3.257,1.212-.837,2.4-.735,3.082.271.656.962.352,2.083-.813,2.924-1.135.82-2.285,1.618-3.421,2.436a15.469,15.469,0,0,1-14.135,2.458c-8.24-2.4-16.542-4.589-24.855-6.722a23.444,23.444,0,0,0-5.237-.251c-.171,0-.412.268-.513.467A5.241,5.241,0,0,1,12.644,197c-2.41-.036-4.82,0-7.23-.011a5.152,5.152,0,0,1-5.4-5.407q-.022-10.015,0-20.03A5.214,5.214,0,0,1,5.5,166.1c2.41-.013,4.82-.006,7.23,0a5.313,5.313,0,0,1,5,2.978,1.233,1.233,0,0,0,.854.561,11.083,11.083,0,0,0,5.058-.754,24.84,24.84,0,0,1,8.606-2.012c4.832-.2,8.95,1.637,12.662,4.569a5.161,5.161,0,0,1,.9.75c1.347,1.707,3.116,2.026,5.188,1.907,2.63-.151,5.274-.016,7.912-.043a7.122,7.122,0,0,1,5.1,1.839c.488.45.8.178,1.194-.023q7.2-3.7,14.406-7.4a7.735,7.735,0,0,1,6.036-.74,6.515,6.515,0,0,1,4.747,5.208,6.714,6.714,0,0,1-2.51,6.888C85.522,181.7,83,183.4,80.521,185.13a1.921,1.921,0,0,1-2.687-.487,1.946,1.946,0,0,1,.536-2.752c2.079-1.514,4.189-2.985,6.274-4.49a6.594,6.594,0,0,0,1.167-1.027,3.088,3.088,0,0,0,.335-3.713,3.049,3.049,0,0,0-3.44-1.211,6.931,6.931,0,0,0-1.355.538c-4.748,2.431-9.485,4.884-14.241,7.3a1.049,1.049,0,0,0-.7,1.246,7.165,7.165,0,0,1-7.173,7.978c-5.634.063-11.269.024-16.9.015a2.017,2.017,0,0,1-2.272-2c.02-1.194.88-1.9,2.342-1.905,5.406,0,10.813.006,16.219-.013a5.712,5.712,0,0,0,1.819-.258,3.284,3.284,0,0,0-1.13-6.352c-3.452-.035-6.9-.056-10.356,0a6.08,6.08,0,0,1-4.5-1.729,30.883,30.883,0,0,0-3.981-3.136c-4.206-2.791-8.726-2.863-13.384-1.338a15.529,15.529,0,0,0-1.564.548,13.684,13.684,0,0,1-6.549,1.249,5.6,5.6,0,0,0-.752.064M3.922,181.505c0,3.322-.007,6.643,0,9.964,0,1.154.445,1.591,1.594,1.6q3.516.016,7.033,0c1.369,0,1.728-.363,1.729-1.742q.005-9.769,0-19.537c0-1.344-.41-1.766-1.729-1.772q-3.419-.013-6.838,0c-1.381,0-1.79.419-1.792,1.817q-.007,4.836,0,9.671" transform="translate(0 -101.166)" fill="#706a9a"/>
    <path id="Path_26583" data-name="Path 26583" d="M181.9,222.6a1.9,1.9,0,0,1-1.942-1.881,1.959,1.959,0,0,1,1.941-2,2,2,0,0,1,1.96,1.9A1.946,1.946,0,0,1,181.9,222.6" transform="translate(-109.61 -133.217)" fill="#706a9a"/>
  </g>
</svg>
