<svg xmlns="http://www.w3.org/2000/svg" xmlns:xlink="http://www.w3.org/1999/xlink" width="96.888" height="100" viewBox="0 0 96.888 100">
  <defs>
    <clipPath id="clip-path">
      <rect id="Rectangle_16520" data-name="Rectangle 16520" width="96.888" height="100" fill="#706a9a"/>
    </clipPath>
  </defs>
  <g id="Group_619" data-name="Group 619" transform="translate(0)">
    <g id="Group_599" data-name="Group 599" transform="translate(0)" clip-path="url(#clip-path)">
      <path id="Path_26596" data-name="Path 26596" d="M85.617,70.518c.972-.41,1.782-.793,2.62-1.1,3.946-1.435,7.585.434,8.493,4.341a6.086,6.086,0,0,1-2.669,6.51q-13.215,8.381-26.431,16.76A18.534,18.534,0,0,1,57.393,100q-10.538-.04-21.076,0a18.992,18.992,0,0,1-6.769-1.223q-6.7-2.51-13.416-5c-.24-.089-.488-.161-.732-.241-.062.07-.129.111-.137.162-.482,3.2-1.855,4.384-5.085,4.385-1.951,0-3.9.018-5.854-.005a4.148,4.148,0,0,1-4.312-4.3q-.022-16.978,0-33.957A4.194,4.194,0,0,1,4.341,55.5c2.049-.023,4.1-.008,6.147,0,2.913,0,4.615,1.633,4.739,4.528.007.158.021.317.037.555l4.038.326a2.427,2.427,0,0,0,.085-.522c-.455-8.7,2.331-16.436,7.028-23.59A63.44,63.44,0,0,1,40.188,22.144c.228-.182.454-.367.675-.559.037-.032.039-.105.109-.317-4.459.3-8.649.972-11.453,4.937-.673.952-1.442,1.2-2.209.694-.747-.5-.853-1.368-.235-2.313A13.3,13.3,0,0,1,35.791,19c1.691-.38,3.432-.537,5.268-.813a7.117,7.117,0,0,0-5.584-2.924,31.92,31.92,0,0,1-5.426-.237,18.943,18.943,0,0,1-4.488-1.787,1.417,1.417,0,0,1-.7-2.116,1.472,1.472,0,0,1,2.206-.357,11.017,11.017,0,0,0,7.089,1.608A9.84,9.84,0,0,1,42.2,15.1c.514.481.527.468,1.077-.007-1.061-2.06-2.221-4.058-3.126-6.166a17.036,17.036,0,0,1-1.111-4.306,4.715,4.715,0,0,1,.452-2.439A2.26,2.26,0,0,1,42.8.956a3.568,3.568,0,0,0,3.9-.219A4.609,4.609,0,0,1,51.88.856a3.066,3.066,0,0,0,3.7.012A4.819,4.819,0,0,1,61.094.9a3.08,3.08,0,0,0,3.287.182c1.913-.909,3.608-.1,3.914,2a7.889,7.889,0,0,1-.319,3.9c-1.021,2.548-2.375,4.963-3.605,7.426-.187.375-.446.714-.712,1.134a5.533,5.533,0,0,1,1.8,4.906c-.025.227.272.547.5.735,1.419,1.192,2.871,2.344,4.286,3.541.937.792,1.057,1.644.4,2.351-.623.671-1.407.62-2.323-.137q-2.068-1.709-4.145-3.405a1.471,1.471,0,0,0-.286-.14,14.325,14.325,0,0,1-6.956,1.906c-4.1.327-8.251.454-12.165-.914-1.72-.6-2.62-.116-3.785.865-5.925,4.988-11.094,10.6-14.669,17.54A33.481,33.481,0,0,0,22.29,59.283c.006.2.008.39.017.585.075,1.624.117,1.52,1.591,2.116a45.061,45.061,0,0,1,6.895,3.13,25.671,25.671,0,0,0,11.769,3.673c4.112.327,8.212.847,12.3,1.389a9.091,9.091,0,0,1,7.969,9.229c0,.322,0,.643,0,1.078a8.049,8.049,0,0,0,.779-.246q8.383-3.687,16.754-7.4a2.582,2.582,0,0,0,1.056-.926,24.818,24.818,0,0,0,3.6-16.435C84.079,46.551,79.807,39.191,74,32.584c-.215-.244-.451-.472-.645-.731a1.467,1.467,0,0,1,.1-2.027,1.418,1.418,0,0,1,2.088.126c1.362,1.572,2.736,3.142,3.977,4.807a41.6,41.6,0,0,1,8.221,18.83,29.384,29.384,0,0,1-1.78,15.978c-.108.259-.2.527-.351.95M59.9,81.394c0-.817,0-1.463,0-2.108a6.164,6.164,0,0,0-5.378-6.195c-4.063-.51-8.127-1.054-12.207-1.374a27.891,27.891,0,0,1-12.72-3.906,37.778,37.778,0,0,0-5.233-2.583,22.974,22.974,0,0,0-9.136-1.619c0,1.3.012,2.529,0,3.755-.015,1.143-.571,1.794-1.488,1.79s-1.437-.644-1.441-1.81c-.009-2.374,0-4.748-.006-7.123-.005-1.323-.453-1.778-1.744-1.784q-2.976-.014-5.952,0c-1.2.007-1.65.457-1.65,1.652q-.008,16.734,0,33.467c0,1.156.431,1.573,1.6,1.581,1.919.012,3.838.005,5.757,0,1.639,0,1.99-.354,1.991-2.007q0-8.879,0-17.758a9.54,9.54,0,0,1,.02-.975,1.355,1.355,0,0,1,1.338-1.306,1.32,1.32,0,0,1,1.464,1.031,4.348,4.348,0,0,1,.109,1.155c.007,4.716.018,9.432-.011,14.148a1.048,1.048,0,0,0,.81,1.191c4.909,1.795,9.777,3.706,14.716,5.415a17.372,17.372,0,0,0,5.325.979c7.219.108,14.44.045,21.66.045A14.307,14.307,0,0,0,65.5,94.879Q79.025,86.348,92.518,77.77a3.191,3.191,0,0,0,1.165-3.959,2.975,2.975,0,0,0-3.559-1.853,10.652,10.652,0,0,0-1.926.673Q75.4,78.246,62.6,83.866a5.392,5.392,0,0,1-2.059.445c-5.008.037-10.017.021-15.026.017a4.513,4.513,0,0,1-1.064-.08,1.437,1.437,0,0,1,.186-2.83,8.618,8.618,0,0,1,.974-.023H59.9ZM41.846,4.027a9.3,9.3,0,0,0,.466,2.255c1.191,2.513,2.5,4.968,3.747,7.457A2.122,2.122,0,0,0,47.71,14.89a27.6,27.6,0,0,0,12.733-.357,1.086,1.086,0,0,0,.6-.4,31.589,31.589,0,0,0,4.222-8.186,21.9,21.9,0,0,0,.409-2.293,5.612,5.612,0,0,1-6.254-.337,2.041,2.041,0,0,0-2.388.075,5.471,5.471,0,0,1-6.551.025,2.389,2.389,0,0,0-2.655-.011,6.83,6.83,0,0,1-2.5.98,18.434,18.434,0,0,1-3.481-.359m11.41,18.794c2.574-.408,5.207-.769,7.814-1.264a1.943,1.943,0,0,0,1.4-2.593,1.788,1.788,0,0,0-2.368-1.38c-1.212.227-2.423.468-3.644.632a28.86,28.86,0,0,1-10.35-.661,1.656,1.656,0,0,0-2.067,1.011,2.091,2.091,0,0,0,1.51,3.076c2.517.458,5.058.782,7.71,1.18" transform="translate(0 0)" fill="#706a9a"/>
      <path id="Path_26597" data-name="Path 26597" d="M122.839,110.134a11.459,11.459,0,0,1-5.694-1.784c-1.1-.7-1.42-1.487-.9-2.307.5-.776,1.344-.864,2.391-.217a7.4,7.4,0,0,0,4.2,1.3v-3.144c0-2.537-.017-5.074.013-7.611a1.011,1.011,0,0,0-.706-1.1c-.713-.306-1.382-.716-2.069-1.085-4.708-2.529-3.9-8.651-.72-11.125a25.5,25.5,0,0,1,3.484-1.915c0-.411-.016-1.084,0-1.757a1.472,1.472,0,0,1,1.471-1.594,1.51,1.51,0,0,1,1.447,1.545c.034.641.007,1.286.007,1.628,1.672.816,3.179,1.467,4.583,2.294a1.836,1.836,0,0,1,.609,1.485,1.572,1.572,0,0,1-.958,1.06,2.336,2.336,0,0,1-1.429-.3c-.874-.384-1.709-.854-2.733-1.378-.033.577-.065.883-.066,1.189,0,2.439.04,4.88-.026,7.317-.022.808.232,1.2.988,1.351a5.181,5.181,0,0,1,.728.274c3.1,1.136,5.142,3.2,5.372,6.6a8.319,8.319,0,0,1-4.407,8.195,19.679,19.679,0,0,1-2.66,1.073c0,.609.02,1.35,0,2.09-.035,1.056-.622,1.667-1.529,1.637-.868-.028-1.374-.616-1.4-1.65-.015-.676,0-1.352,0-2.081m2.988-3.251a5.436,5.436,0,0,0,4.109-5.387,4.576,4.576,0,0,0-4.109-4.59Zm-3.035-22.321a4.061,4.061,0,0,0-3.072,4c-.027,1.822.964,3,3.072,3.618Z" transform="translate(-70.719 -47.428)" fill="#706a9a"/>
    </g>
  </g>
</svg>
